<svg width="20" height="20" viewBox="0 0 20 20" fill="none" xmlns="http://www.w3.org/2000/svg">
<path d="M9.99999 19C9.35499 18.428 8.62599 17.833 7.85499 17.2H7.84499C5.12999 14.98 2.05299 12.468 0.693992 9.458C0.24751 8.49972 0.0108963 7.45712 -1.91116e-05 6.4C-0.00300091 4.94948 0.578763 3.55898 1.6138 2.54276C2.64884 1.52654 4.04978 0.97039 5.49999 0.999995C6.68062 1.00186 7.83583 1.34308 8.82799 1.983C9.26396 2.26596 9.65841 2.60825 9.99999 3C10.3435 2.60979 10.738 2.2677 11.173 1.983C12.1647 1.34295 13.3197 1.00171 14.5 0.999995C15.9502 0.97039 17.3511 1.52654 18.3862 2.54276C19.4212 3.55898 20.003 4.94948 20 6.4C19.9898 7.45881 19.7532 8.50319 19.306 9.463C17.947 12.473 14.871 14.984 12.156 17.2L12.146 17.208C11.374 17.837 10.646 18.432 10.001 19.008L9.99999 19ZM5.49999 3C4.5685 2.98834 3.67006 3.34484 2.99999 3.992C2.35438 4.62616 1.99355 5.49504 1.99991 6.4C2.01132 7.1705 2.18582 7.92985 2.51199 8.628C3.1535 9.9267 4.0191 11.102 5.06899 12.1C6.05999 13.1 7.19999 14.068 8.18599 14.882C8.45899 15.107 8.73699 15.334 9.01499 15.561L9.18999 15.704C9.45699 15.922 9.73299 16.148 9.99999 16.37L10.013 16.358L10.019 16.353H10.025L10.034 16.346H10.039H10.044L10.062 16.331L10.103 16.298L10.11 16.292L10.121 16.284H10.127L10.136 16.276L10.8 15.731L10.974 15.588C11.255 15.359 11.533 15.132 11.806 14.907C12.792 14.093 13.933 13.126 14.924 12.121C15.974 11.1236 16.8397 9.94851 17.481 8.65C17.8131 7.9458 17.9901 7.1785 18 6.4C18.0042 5.49783 17.6435 4.63229 17 4C16.3312 3.34992 15.4326 2.99048 14.5 3C13.3619 2.99032 12.2739 3.46736 11.51 4.311L9.99999 6.051L8.48999 4.311C7.72606 3.46736 6.63807 2.99032 5.49999 3Z" fill="#C4C4C4"/>
</svg>
