<svg width="20" height="22" viewBox="0 0 20 22" fill="none" xmlns="http://www.w3.org/2000/svg">
<path d="M5.00001 7V5C5.00001 3.67392 5.06232 1.93768 6.00001 1C6.93769 0.0623181 8.67392 0 10 0C11.3261 0 13.0623 0.0623181 14 1C14.9377 1.93768 15 3.67392 15 5V7H18C18.2652 7 18.8125 6.81246 19 7C19.1875 7.18754 19 7.73478 19 8V20C19 20.2652 19.1875 20.8125 19 21C18.8125 21.1875 18.2652 21 18 21H2.00001C1.73479 21 1.18754 21.1875 1.00001 21C0.81247 20.8125 1.00001 20.2652 1.00001 20V8C1.00001 7.73478 0.81247 7.18754 1.00001 7C1.18754 6.81246 1.73479 7 2.00001 7H5.00001ZM5.00001 9H3.00001V19H17V9H15V11H13V9H7.00001V11H5.00001V9ZM7.00001 7H13V5C13 4.20435 12.5626 3.56261 12 3C11.4374 2.43739 10.7957 2 10 2C9.20436 2 8.56262 2.43739 8.00001 3C7.4374 3.56261 7.00001 4.20435 7.00001 5V7Z" fill="#C4C4C4"/>
</svg>
